<?xml version="1.0" encoding="UTF-8"?><svg id="_层_1" xmlns="http://www.w3.org/2000/svg" viewBox="0 0 24 24"><defs><style>.cls-1{fill:none;}</style></defs><rect id="_形" class="cls-1" x="-4" y="-4" width="32" height="32"/><rect id="_形-2" class="cls-1" width="24" height="24"/><g><path d="M12.4,17.13l-4.6-4.6c-.28-.28-.29-.73-.03-1.03l.03-.03,4.6-4.6c.29-.29,.29-.77,0-1.06-.14-.14-.32-.21-.51-.22h-.05c-.17,0-.34,.07-.47,.19l-.03,.03-4.95,4.95c-.67,.67-.68,1.75-.04,2.43l.04,.04,4.95,4.95c.13,.13,.29,.2,.46,.22h.09c.18,0,.37-.08,.51-.22,.28-.28,.29-.73,.03-1.03l-.03-.03Z"/><path d="M17.9,17.13l-4.6-4.6c-.28-.28-.29-.73-.03-1.03l.03-.03,4.6-4.6c.29-.29,.29-.77,0-1.06-.14-.14-.32-.21-.51-.22h-.05c-.17,0-.34,.07-.47,.19l-.03,.03-4.95,4.95c-.67,.67-.68,1.75-.04,2.43l.04,.04,4.95,4.95c.13,.13,.29,.2,.46,.22h.09c.18,0,.37-.08,.51-.22,.28-.28,.29-.73,.03-1.03l-.03-.03Z"/></g></svg>