<?xml version="1.0" standalone="no"?>
<svg xmlns="http://www.w3.org/2000/svg" width="24" height="24"><rect width="24" height="24" opacity="0"></rect><g><path d="M12 0.96Q9.55 0.96 7.49 2.17Q5.42 3.38 4.21 5.45Q3 7.51 3 9.96Q3 13.44 5.41 16.76Q7.82 20.09 10.56 22.49Q11.18 23.04 12 23.04Q12.82 23.04 13.44 22.49Q16.18 20.09 18.59 16.76Q21 13.44 21 9.96Q21 7.51 19.79 5.45Q18.58 3.38 16.5 2.17Q14.42 0.96 12 0.96ZM12 11.88Q11.38 11.88 10.86 11.58Q10.34 11.28 10.04 10.76Q9.74 10.25 9.74 9.62Q9.74 9.02 10.04 8.51Q10.34 7.99 10.86 7.69Q11.38 7.39 12 7.39Q12.6 7.39 13.12 7.69Q13.63 7.99 13.93 8.51Q14.23 9.02 14.23 9.62Q14.23 10.25 13.93 10.76Q13.63 11.28 13.12 11.58Q12.6 11.88 12 11.88Z" fill="rgba(237,111,33,1)"></path></g></svg>