<svg id="图层_1" data-name="图层 1" xmlns="http://www.w3.org/2000/svg" viewBox="0 0 24 24"><title>搜索</title><path d="M10.85853,3.921a6.875,6.875,0,1,0,6.875,6.875A6.875,6.875,0,0,0,10.85853,3.921Zm0-1.5a8.37518,8.37518,0,0,1,6.372,13.81022l-.02212.0258q-.10023.11644-.20462.22912l.22674-.25492q-.13931.16317-.28672.319-.08789.09289-.17817.18273l-.06267.0617q-.10533.10266-.21516.20243-.04245.03858-.08584.07691-.10046.08875-.2032.1739l-.041.03376A8.37511,8.37511,0,1,1,10.85853,2.421Zm7.08026,14.52019,3.358,3.35742a.75.75,0,0,1-1.06066,1.06066l-3.36765-3.36775A9.43336,9.43336,0,0,0,17.93879,16.94122Z"/></svg>