<?xml version="1.0" standalone="no"?>
<svg xmlns="http://www.w3.org/2000/svg" width="24" height="24"><rect width="24" height="24" opacity="0"></rect><g><path d="M5.93 2.57Q5.86 2.57 5.8 2.62Q5.74 2.66 5.71 2.71Q5.45 4.1 4.45 5.1Q3.46 6.1 2.06 6.38Q2.02 6.38 1.97 6.44Q1.92 6.5 1.92 6.58Q1.92 6.65 1.97 6.7Q2.02 6.74 2.06 6.77Q3.43 7.06 4.44 8.05Q5.45 9.05 5.71 10.42Q5.74 10.49 5.8 10.52Q5.86 10.56 5.93 10.56Q6 10.56 6.05 10.52Q6.1 10.49 6.12 10.42Q6.41 9.05 7.39 8.05Q8.38 7.06 9.77 6.77Q9.84 6.74 9.88 6.7Q9.91 6.65 9.91 6.58Q9.91 6.5 9.88 6.44Q9.84 6.38 9.77 6.38Q8.4 6.1 7.4 5.1Q6.41 4.1 6.12 2.71Q6.02 2.57 5.93 2.57Z" fill="rgba(0,0,0,0.9019607843137255)"></path><path d="M8.86 21.36Q9.17 21.36 9.38 21.16Q9.6 20.95 9.6 20.64Q9.6 20.33 9.38 20.1Q9.17 19.87 8.86 19.87L6.31 19.87Q5.57 19.87 5.03 19.33Q4.49 18.79 4.49 18.05L4.49 15.43Q4.49 15.12 4.27 14.9Q4.06 14.69 3.74 14.69Q3.43 14.69 3.22 14.92Q3 15.14 3 15.46L3 18.05Q3 18.94 3.44 19.7Q3.89 20.47 4.66 20.92Q5.42 21.36 6.31 21.36L8.86 21.36ZM17.64 21.36Q18.55 21.36 19.32 20.92Q20.09 20.47 20.53 19.7Q20.98 18.94 20.98 18.05L20.98 15.46Q20.98 15.14 20.76 14.93Q20.54 14.71 20.23 14.71Q19.92 14.71 19.7 14.93Q19.49 15.14 19.49 15.46L19.49 18.05Q19.49 18.79 18.95 19.33Q18.41 19.87 17.64 19.87L15.07 19.87Q14.76 19.87 14.53 20.09Q14.3 20.3 14.3 20.62Q14.3 20.93 14.53 21.14Q14.76 21.36 15.07 21.36L17.64 21.36ZM20.23 10.66Q20.54 10.66 20.77 10.43Q21 10.2 21 9.89L21 7.3Q21 6.41 20.56 5.64Q20.11 4.87 19.34 4.42Q18.58 3.96 17.66 3.96L15.12 3.96Q14.81 3.96 14.59 4.19Q14.38 4.42 14.38 4.73Q14.38 5.04 14.59 5.26Q14.81 5.47 15.12 5.47L17.66 5.47Q18.43 5.47 18.96 6Q19.49 6.53 19.49 7.3L19.49 9.89Q19.49 10.2 19.7 10.43Q19.92 10.66 20.23 10.66ZM12 17.16Q13.22 17.16 14.26 16.56Q15.29 15.96 15.89 14.93Q16.49 13.9 16.49 12.67Q16.49 11.45 15.89 10.42Q15.29 9.38 14.26 8.78Q13.22 8.18 12 8.18Q10.78 8.18 9.74 8.78Q8.71 9.38 8.11 10.42Q7.51 11.45 7.51 12.67Q7.51 13.9 8.11 14.93Q8.71 15.96 9.74 16.56Q10.78 17.16 12 17.16ZM12 9.67Q12.82 9.67 13.5 10.08Q14.18 10.49 14.59 11.17Q15 11.86 15 12.67Q15 13.49 14.59 14.17Q14.18 14.86 13.5 15.25Q12.82 15.65 12 15.65Q11.18 15.65 10.51 15.25Q9.84 14.86 9.43 14.17Q9.02 13.49 9.02 12.67Q9.02 11.86 9.43 11.17Q9.84 10.49 10.52 10.08Q11.21 9.67 12 9.67Z" fill="rgba(0,0,0,0.9019607843137255)"></path></g></svg>