<?xml version="1.0" standalone="no"?>
<svg xmlns="http://www.w3.org/2000/svg" width="24" height="24"><rect width="24" height="24" opacity="0"></rect><g><path d="M5.95 1.99Q4.87 1.99 3.96 2.52Q3.05 3.05 2.52 3.96Q1.99 4.87 1.99 5.95L1.99 18.05Q1.99 19.13 2.52 20.04Q3.05 20.95 3.96 21.48Q4.87 22.01 5.95 22.01L18.05 22.01Q19.13 22.01 20.04 21.48Q20.95 20.95 21.48 20.04Q22.01 19.13 22.01 18.05L22.01 5.95Q22.01 4.87 21.48 3.96Q20.95 3.05 20.04 2.52Q19.13 1.99 18.05 1.99L5.95 1.99ZM20.5 8.76L10.68 8.76L10.68 3.5L18.05 3.5Q19.06 3.5 19.78 4.21Q20.5 4.92 20.5 5.95ZM9.17 10.25L9.17 14.76L3.5 14.76L3.5 10.25ZM20.5 10.25L20.5 14.76L10.68 14.76L10.68 10.25ZM9.17 3.5L9.17 8.76L3.5 8.76L3.5 5.95Q3.5 4.92 4.22 4.21Q4.94 3.5 5.95 3.5ZM3.5 16.25L9.17 16.25L9.17 20.5L5.95 20.5Q4.94 20.5 4.22 19.78Q3.5 19.06 3.5 18.05ZM10.68 20.5L10.68 16.25L20.5 16.25L20.5 18.05Q20.5 19.06 19.78 19.78Q19.06 20.5 18.05 20.5Z" fill="rgba(0,0,0,0.9019607843137255)"></path></g></svg>