<?xml version="1.0" standalone="no"?>
<svg xmlns="http://www.w3.org/2000/svg" width="24" height="24"><rect width="24" height="24" opacity="0"></rect><g><path d="M4.87 2.88Q4.82 2.88 4.76 2.93Q4.7 2.98 4.68 3.05Q4.39 4.46 3.4 5.48Q2.4 6.5 1.03 6.79Q0.96 6.79 0.92 6.85Q0.89 6.91 0.89 6.98Q0.89 7.06 0.92 7.1Q0.96 7.15 1.03 7.18Q2.4 7.46 3.4 8.48Q4.39 9.5 4.68 10.92Q4.7 10.99 4.75 11.03Q4.8 11.06 4.87 11.06Q4.94 11.06 5 11.03Q5.06 10.99 5.09 10.92Q5.38 9.5 6.37 8.48Q7.37 7.46 8.74 7.18Q8.81 7.18 8.84 7.12Q8.88 7.06 8.88 6.98Q8.88 6.91 8.84 6.86Q8.81 6.82 8.74 6.79Q7.34 6.48 6.36 5.47Q5.38 4.46 5.09 3.05Q5.06 2.98 5.02 2.93Q4.97 2.88 4.87 2.88Z" fill="rgba(0,0,0,0.9019607843137255)"></path><path d="M20.23 21.1Q21 21.1 21.67 20.71Q22.34 20.33 22.73 19.68Q23.11 19.03 23.11 18.26L23.11 6.94Q23.11 6.17 22.73 5.52Q22.34 4.87 21.67 4.49Q21 4.1 20.23 4.1L9.96 4.1Q9.65 4.1 9.42 4.32Q9.19 4.54 9.19 4.85Q9.19 5.16 9.42 5.38Q9.65 5.59 9.96 5.59L20.23 5.59Q20.81 5.59 21.22 5.99Q21.62 6.38 21.62 6.94L21.62 18.26Q21.62 18.82 21.22 19.21Q20.81 19.61 20.23 19.61L5.02 19.61Q4.44 19.61 4.03 19.21Q3.62 18.82 3.62 18.26L3.62 11.86Q3.62 11.54 3.41 11.33Q3.19 11.11 2.88 11.11Q2.57 11.11 2.34 11.33Q2.11 11.54 2.11 11.86L2.11 18.26Q2.11 19.03 2.51 19.68Q2.9 20.33 3.58 20.71Q4.25 21.1 5.02 21.1L20.23 21.1ZM15.48 16.87Q15.79 16.87 16.02 16.64Q16.25 16.42 16.25 16.1Q16.25 15.79 16.02 15.58Q15.79 15.36 15.48 15.36L9.74 15.36Q9.43 15.36 9.22 15.58Q9 15.79 9 16.1Q9 16.42 9.22 16.64Q9.43 16.87 9.74 16.87L15.48 16.87ZM8.33 13.34Q8.64 13.34 8.86 13.13Q9.07 12.91 9.07 12.6Q9.07 12.29 8.86 12.07Q8.64 11.86 8.33 11.86L7.32 11.86Q7.01 11.86 6.79 12.07Q6.58 12.29 6.58 12.6Q6.58 12.91 6.79 13.13Q7.01 13.34 7.32 13.34L8.33 13.34ZM11.52 13.34Q11.83 13.34 12.05 13.13Q12.26 12.91 12.26 12.6Q12.26 12.29 12.05 12.07Q11.83 11.86 11.52 11.86L10.51 11.86Q10.2 11.86 9.98 12.07Q9.77 12.29 9.77 12.6Q9.77 12.91 9.98 13.13Q10.2 13.34 10.51 13.34L11.52 13.34ZM14.71 13.34Q15.02 13.34 15.25 13.13Q15.48 12.91 15.48 12.6Q15.48 12.29 15.25 12.07Q15.02 11.86 14.71 11.86L13.73 11.86Q13.42 11.86 13.19 12.07Q12.96 12.29 12.96 12.6Q12.96 12.91 13.19 13.13Q13.42 13.34 13.73 13.34L14.71 13.34ZM17.9 13.34Q18.22 13.34 18.43 13.13Q18.65 12.91 18.65 12.6Q18.65 12.29 18.43 12.07Q18.22 11.86 17.9 11.86L16.92 11.86Q16.61 11.86 16.38 12.07Q16.15 12.29 16.15 12.6Q16.15 12.91 16.38 13.13Q16.61 13.34 16.92 13.34L17.9 13.34ZM11.52 9.84Q11.83 9.84 12.05 9.62Q12.26 9.41 12.26 9.1Q12.26 8.78 12.05 8.57Q11.83 8.35 11.52 8.35L10.51 8.35Q10.2 8.35 9.98 8.57Q9.77 8.78 9.77 9.1Q9.77 9.41 9.98 9.62Q10.2 9.84 10.51 9.84L11.52 9.84ZM14.71 9.84Q15.02 9.84 15.25 9.62Q15.48 9.41 15.48 9.1Q15.48 8.78 15.25 8.57Q15.02 8.35 14.71 8.35L13.73 8.35Q13.42 8.35 13.19 8.57Q12.96 8.78 12.96 9.1Q12.96 9.41 13.19 9.62Q13.42 9.84 13.73 9.84L14.71 9.84ZM17.9 9.84Q18.22 9.84 18.43 9.62Q18.65 9.41 18.65 9.1Q18.65 8.78 18.43 8.57Q18.22 8.35 17.9 8.35L16.92 8.35Q16.61 8.35 16.38 8.57Q16.15 8.78 16.15 9.1Q16.15 9.41 16.38 9.62Q16.61 9.84 16.92 9.84L17.9 9.84Z" fill="rgba(0,0,0,0.9019607843137255)"></path></g></svg>