<?xml version="1.0" standalone="no"?>
<svg xmlns="http://www.w3.org/2000/svg" width="24" height="24"><rect width="24" height="24" opacity="0"></rect><g><path d="M5.45 13.87Q5.18 14.06 5.14 14.33Q5.09 14.59 5.23 14.81Q5.4 15.02 5.57 15.24L5.86 15.65Q6.74 16.94 6.89 17.23Q6.96 17.38 7.07 17.47Q7.18 17.57 7.32 17.62L7.37 17.64Q7.7 17.74 8.41 17.9Q9.12 18.07 10.08 18.22Q11.04 18.36 12.05 18.36Q13.39 18.36 14.42 18.18Q15.46 18 16.58 17.76L16.66 17.74Q16.8 17.71 16.92 17.6Q17.04 17.5 17.11 17.38Q17.35 16.87 17.76 16.2Q18.17 15.53 18.41 15.26Q19.39 14.06 19.91 12.62Q20.42 11.18 20.42 9.65Q20.42 7.46 19.43 5.56Q18.43 3.65 16.72 2.44Q15 1.22 12.91 0.98Q12.53 0.94 12.2 1.08Q11.88 1.22 11.83 1.56Q11.78 1.9 12.06 2.15Q12.34 2.4 12.72 2.45Q14.47 2.64 15.9 3.65Q17.33 4.66 18.16 6.24Q18.98 7.82 18.98 9.65Q18.98 10.92 18.55 12.13Q18.12 13.34 17.3 14.33Q16.85 14.83 15.98 16.42Q15.58 16.51 14.96 16.62Q14.35 16.73 13.58 16.81Q12.82 16.9 12.05 16.9Q10.58 16.9 8.28 16.39L8.04 16.32Q7.61 15.5 6.89 14.62Q6.79 14.47 6.67 14.35Q6.48 14.06 6.38 13.97Q6.19 13.78 5.95 13.73Q5.71 13.68 5.45 13.87ZM16.34 18.89Q13.99 19.32 11.94 19.31Q9.89 19.3 7.66 18.89Q7.61 18.86 7.56 18.91Q7.51 18.96 7.51 19.03Q7.61 20.16 8.22 21.07Q8.83 21.98 9.83 22.51Q10.82 23.04 12.07 23.04Q13.18 23.04 14.16 22.51Q15.14 21.98 15.76 21.07Q16.37 20.16 16.46 19.03Q16.49 18.98 16.44 18.94Q16.39 18.89 16.34 18.89Z" fill="rgba(0,0,0,0.9019607843137255)"></path><path d="M3.82 8.09Q3.77 8.09 3.74 8.11Q3.72 8.14 3.7 8.16Q3.53 9.02 2.89 9.64Q2.26 10.25 1.42 10.44Q1.32 10.46 1.32 10.56Q1.32 10.61 1.34 10.64Q1.37 10.68 1.42 10.68Q2.28 10.85 2.89 11.48Q3.5 12.12 3.7 12.98Q3.7 13.03 3.73 13.06Q3.77 13.08 3.82 13.08Q3.86 13.08 3.9 13.06Q3.94 13.03 3.94 12.98Q4.1 12.12 4.74 11.5Q5.38 10.87 6.22 10.68Q6.26 10.68 6.29 10.64Q6.31 10.61 6.31 10.56Q6.31 10.51 6.29 10.49Q6.26 10.46 6.22 10.44Q5.35 10.25 4.74 9.64Q4.13 9.02 3.94 8.16Q3.94 8.11 3.9 8.1Q3.86 8.09 3.82 8.09ZM7.82 1.08Q7.75 1.08 7.7 1.13Q7.66 1.18 7.63 1.22Q7.34 2.59 6.34 3.6Q5.33 4.61 3.98 4.9Q3.91 4.9 3.86 4.96Q3.82 5.02 3.82 5.09Q3.82 5.16 3.86 5.21Q3.91 5.26 3.98 5.28Q5.35 5.57 6.35 6.56Q7.34 7.56 7.63 8.93Q7.63 8.98 7.68 9.02Q7.73 9.07 7.82 9.07Q7.9 9.07 7.94 9.02Q7.99 8.98 8.02 8.93Q8.3 7.54 9.3 6.55Q10.3 5.57 11.66 5.28Q11.74 5.26 11.78 5.21Q11.83 5.16 11.83 5.09Q11.83 5.02 11.78 4.96Q11.74 4.9 11.66 4.9Q10.3 4.61 9.3 3.6Q8.3 2.59 8.02 1.22Q8.02 1.18 7.96 1.13Q7.9 1.08 7.82 1.08Z" fill="rgba(0,0,0,0.9019607843137255)"></path></g></svg>