<?xml version="1.0" standalone="no"?><!DOCTYPE svg PUBLIC "-//W3C//DTD SVG 1.1//EN" "http://www.w3.org/Graphics/SVG/1.1/DTD/svg11.dtd"><svg t="1736733664212" class="icon" viewBox="0 0 1024 1024" version="1.1" xmlns="http://www.w3.org/2000/svg" p-id="13519" xmlns:xlink="http://www.w3.org/1999/xlink" width="200" height="200"><path d="M492.8 503.466667l-1.706667 3.84-1.706666-1.706667c-17.066667 43.52-35.84 87.04-56.746667 128.853333l3.84-1.706666v3.84c41.813333-15.36 87.04-28.586667 128.853333-37.973334l-1.706666-1.706666h5.546666c-29.013333-29.013333-55.466667-61.013333-76.373333-93.44zM479.573333 228.693333h-5.546666c-1.706667 0-5.546667 0-7.68 1.706667-7.68 32.426667-1.706667 66.56 11.52 96.853333 11.093333-32.426667 11.093333-66.56 1.706666-98.56zM227.413333 797.44l5.546667-1.706667c26.453333-9.386667 47.36-28.586667 62.72-52.906666-28.16 11.093333-51.2 29.866667-68.266667 54.613333zM750.933333 604.16c-17.066667 0-32.426667 0-49.493333 3.84 18.773333 9.386667 37.973333 13.226667 56.746667 15.36 13.226667 1.706667 26.453333 0 37.973333-3.84 0-5.973333-7.253333-15.36-45.226667-15.36z" fill="#4C4C4C" opacity=".99" p-id="13520"></path><path d="M853.333333 85.333333H170.666667c-46.933333 0-85.333333 38.4-85.333334 85.333334v682.666666c0 46.933333 38.4 85.333333 85.333334 85.333334h682.666666c46.933333 0 85.333333-38.4 85.333334-85.333334V170.666667c0-46.933333-38.4-85.333333-85.333334-85.333334z m0 529.92c0 64.426667-62.72 64.426667-94.72 64.426667-51.2-3.84-100.266667-22.613333-140.373333-56.746667-77.653333 17.066667-151.466667 41.813333-225.706667 72.106667-58.88 104.106667-113.92 157.44-161.28 157.44-9.386667 0-20.906667-1.706667-28.586666-7.68-20.906667-9.386667-32.426667-30.293333-32.426667-51.2 0-17.066667 3.84-64.426667 183.893333-142.08 41.813333-75.946667 73.813333-153.6 100.266667-235.093333-22.613333-45.653333-72.106667-157.44-37.973333-214.186667 11.52-20.906667 34.133333-32.426667 58.88-30.293333 18.773333 0 37.973333 9.386667 49.493333 24.746666 24.746667 34.133333 22.613333 106.24-9.386667 212.48 30.293333 56.746667 69.973333 107.946667 117.333334 151.466667 39.68-7.68 79.786667-13.226667 119.466666-13.226667 89.6 1.706667 102.826667 43.52 101.12 67.84z" fill="#4C4C4C" opacity=".99" p-id="13521"></path></svg>