<?xml version="1.0" standalone="no"?><!DOCTYPE svg PUBLIC "-//W3C//DTD SVG 1.1//EN" "http://www.w3.org/Graphics/SVG/1.1/DTD/svg11.dtd"><svg t="1736562523132" class="icon" viewBox="0 0 1024 1024" version="1.1" xmlns="http://www.w3.org/2000/svg" p-id="5231" xmlns:xlink="http://www.w3.org/1999/xlink" width="200" height="200"><path d="M510 997.957c-267.664 0-484.65-217.029-484.65-484.728S242.336 28.517 510 28.517c267.667 0 484.652 217.013 484.652 484.712S777.667 997.957 510 997.957z m0-908.853c-234.209 0-424.068 189.886-424.068 424.125S275.792 937.357 510 937.357s424.068-189.89 424.068-424.128S744.209 89.104 510 89.104z m181.744 454.425h-151.45v151.474c0 16.722-13.563 30.289-30.292 30.289s-30.288-13.567-30.288-30.29V543.53H328.258c-16.728 0-30.29-13.564-30.29-30.3 0-16.724 13.564-30.289 30.29-30.289h151.456V331.46c0-16.722 13.562-30.282 30.288-30.282 16.732 0 30.291 13.557 30.291 30.282v151.48h151.451c16.731 0 30.291 13.565 30.291 30.289 0 16.736-13.56 30.3-30.291 30.3z" p-id="5232"></path></svg>