<?xml version="1.0" standalone="no"?><!DOCTYPE svg PUBLIC "-//W3C//DTD SVG 1.1//EN" "http://www.w3.org/Graphics/SVG/1.1/DTD/svg11.dtd"><svg t="1736559671940" class="icon" viewBox="0 0 1024 1024" version="1.1" xmlns="http://www.w3.org/2000/svg" p-id="4240" xmlns:xlink="http://www.w3.org/1999/xlink" width="200" height="200"><path d="M671.631 408.599v588.449c0 14.892-13.109 26.952-29.285 26.952-16.175 0-29.285-12.061-29.285-26.952V403.949c0-0.864 0.189-1.683 0.274-2.527-0.852-7.057 1.453-14.386 7.247-20.078L886.709 120.14c-5.188-38.51-42.206-68.378-87.168-68.378v-0.352c-1.305 0.157-2.597 0.352-3.953 0.352H151.32c-1.676 0-3.289-0.197-4.884-0.435v0.435c-44.963 0-81.981 29.869-87.168 68.378l266.126 261.204c5.691 5.585 8.031 12.748 7.31 19.683 0.051 0.622 0.211 1.213 0.211 1.845v362.327c0 14.295-13.115 25.881-29.285 25.881-16.175 0-29.285-11.586-29.285-25.881V408.594L7.532 146.72c-0.435-0.427-0.732-0.917-1.133-1.362-0.641-0.718-1.275-1.431-1.83-2.207-0.503-0.713-0.921-1.446-1.344-2.189-0.429-0.753-0.852-1.501-1.195-2.295-0.354-0.821-0.618-1.65-0.875-2.492-0.24-0.776-0.48-1.542-0.635-2.346-0.183-0.933-0.258-1.868-0.32-2.811-0.04-0.544-0.189-1.062-0.189-1.615C0.011 57.938 65.57 0 146.436 0v0.435C148.032 0.197 149.644 0 151.32 0h644.268c1.356 0 2.648 0.195 3.953 0.351V0c80.865 0 146.419 57.938 146.419 129.403 0 0.553-0.144 1.071-0.184 1.617-0.068 0.943-0.137 1.878-0.32 2.811-0.16 0.804-0.4 1.57-0.635 2.346-0.258 0.841-0.521 1.67-0.875 2.492-0.349 0.794-0.772 1.542-1.201 2.295-0.418 0.743-0.835 1.476-1.344 2.189-0.556 0.776-1.185 1.488-1.831 2.207-0.395 0.444-0.691 0.935-1.126 1.362L671.631 408.599z m59.53 33.958c0 14.295 13.11 25.881 29.285 25.881h234.279c16.176 0 29.285-11.586 29.285-25.881s-13.109-25.88-29.285-25.88H760.447c-16.175 0-29.286 11.585-29.286 25.88z m29.28 291.586h234.279c16.176 0 29.285-11.585 29.285-25.88s-13.109-25.881-29.285-25.881H760.441c-16.175 0-29.285 11.586-29.285 25.881s13.11 25.88 29.285 25.88z m234.285 238.096H760.447c-16.175 0-29.285 11.585-29.285 25.88S744.272 1024 760.447 1024h234.279c16.176 0 29.285-11.586 29.285-25.881s-13.109-25.88-29.285-25.88z" fill="#231815" p-id="4241"></path></svg>