<?xml version="1.0" standalone="no"?><!DOCTYPE svg PUBLIC "-//W3C//DTD SVG 1.1//EN" "http://www.w3.org/Graphics/SVG/1.1/DTD/svg11.dtd"><svg t="1736733216103" class="icon" viewBox="0 0 1024 1024" version="1.1" xmlns="http://www.w3.org/2000/svg" p-id="5739" xmlns:xlink="http://www.w3.org/1999/xlink" width="200" height="200"><path d="M418.133333 571.733333h106.666667a160.853333 160.853333 0 0 0 119.466667-34.986666 123.306667 123.306667 0 0 0 38.4-100.266667 128 128 0 0 0-38.4-100.266667A151.04 151.04 0 0 0 524.8 298.666667H341.333333v426.666666h76.8v-153.6M810.666667 128a85.333333 85.333333 0 0 1 85.333333 85.333333v597.333334a85.333333 85.333333 0 0 1-85.333333 85.333333H213.333333a85.333333 85.333333 0 0 1-85.333333-85.333333V213.333333a85.333333 85.333333 0 0 1 85.333333-85.333333h597.333334m-392.533334 384V358.4h97.28a85.333333 85.333333 0 0 1 64 25.6c14.122667 13.909333 21.845333 33.066667 21.333334 52.906667a69.973333 69.973333 0 0 1-21.333334 53.76 76.373333 76.373333 0 0 1-58.88 21.333333H418.133333z" fill="#000000" p-id="5740"></path></svg>