<?xml version="1.0" encoding="UTF-8"?>
<svg width="26px" height="26px" viewBox="0 0 26 26" version="1.1" xmlns="http://www.w3.org/2000/svg" xmlns:xlink="http://www.w3.org/1999/xlink">
    <title>ic_B_on</title>
    <defs>
        <path d="M12.7613921,2.75 C14.9999905,2.75 16.7135524,3.21460228 17.8909877,4.16677313 C19.0928209,5.13867407 19.6910101,6.57961631 19.6910101,8.44444444 C19.6910101,9.45687741 19.4005519,10.3659905 18.8224536,11.1563058 C18.4559943,11.6572905 18.0583244,12.0937883 17.6252197,12.4495517 L17.4616972,12.575 L17.5886955,12.6290396 C18.2069288,12.903149 18.6740069,13.2415647 19.0689377,13.7170112 L19.1980176,13.8806684 C19.8822621,14.7935305 20.2244718,15.8759079 20.2244718,17.1111111 C20.2244718,19.0088808 19.5963053,20.5269076 18.3412035,21.6261374 C17.0990718,22.714008 15.3634234,23.25 13.1544692,23.25 L7.93020321,23.25 C6.75576636,23.25 5.80369718,22.2979308 5.80369718,21.123494 L5.80369718,4.87650602 C5.80369718,3.70206918 6.75576636,2.75 7.93020321,2.75 L12.7613921,2.75 Z M13.2480706,14.21875 L8.74383803,14.21875 L8.74383803,20.3125 L13.2188224,20.3125 C14.4862534,20.3125 15.4806845,20.0424754 16.2021452,19.5024182 C16.923606,18.9623609 17.284331,18.2167706 17.284331,17.265625 C17.284331,15.2343648 15.9389243,14.21875 13.2480706,14.21875 Z M12.7235915,5.6875 L8.74383803,5.6875 L8.74383803,11.78125 L12.8107394,11.78125 C13.9920834,11.78125 14.9313345,11.5079904 15.6285211,10.961463 C16.3257077,10.4149356 16.6742958,9.66802604 16.6742958,8.72071188 C16.6742958,7.66409225 16.3499152,6.89441105 15.7011444,6.41164518 C15.0523735,5.92887931 14.0598658,5.6875 12.7235915,5.6875 Z" id="path-1"></path>
    </defs>
    <g id="ic_B_on" stroke="none" stroke-width="1" fill="none" fill-rule="evenodd">
        <mask id="mask-2" fill="white">
            <use xlink:href="#path-1"></use>
        </mask>
        <use id="形状结合" fill="#007DFF" fill-rule="nonzero" xlink:href="#path-1"></use>
    </g>
</svg>