<?xml version="1.0" encoding="UTF-8"?>
<svg width="24px" height="24px" viewBox="0 0 24 24" version="1.1" xmlns="http://www.w3.org/2000/svg" xmlns:xlink="http://www.w3.org/1999/xlink">
    <title>切片</title>
    <g id="页面-1" stroke="none" stroke-width="1" fill="none" fill-rule="evenodd">
        <g id="编组">
            <rect id="矩形" x="0" y="0" width="24" height="24"></rect>
            <g opacity="0.6" transform="translate(1.000000, 3.000000)" fill="#000000" fill-rule="nonzero" id="形状">
                <path d="M18.9752492,8 C20.3559611,8 21.4752492,9.1192881 21.4752492,10.5 C21.4752492,10.5830744 21.4711084,10.6660972 21.4628422,10.7487593 L20.9628422,15.7487593 C20.8350417,17.0267638 19.7596278,18 18.4752492,18 L3.00018699,18 C1.71580836,18 0.640394457,17.0267638 0.512594007,15.7487593 L0.0125940069,10.7487593 C-0.124791963,9.3748996 0.877568017,8.149793 2.25142769,8.012407 C2.33408981,8.0041408 2.41711258,8 2.50018699,8 L18.9752492,8 Z M18.9752492,9.5 L2.50018699,9.5 C2.46695722,9.5 2.43374811,9.5016563 2.40068327,9.5049628 C1.89039253,9.5559919 1.50823128,9.9821736 1.5002399,10.4827919 L1.5051498,10.5995037 L2.0051498,15.5995037 C2.05233765,16.0713823 2.42249909,16.4393872 2.88324722,16.4932112 L3.00018699,16.5 L18.4752492,16.5 C18.9494813,16.5 19.3524923,16.1682935 19.4518953,15.7151876 L19.4702864,15.5995037 L19.9702864,10.5995037 C19.9735929,10.5664389 19.9752492,10.5332298 19.9752492,10.5 C19.9752492,9.9477153 19.5275339,9.5 18.9752492,9.5 Z M16.9132258,3 C18.2939376,3 19.4132258,4.11928813 19.4132258,5.5 L19.4119913,5.57855477 L19.320452,7.036819 C19.227344,7.0206831 19.1324704,7.0096977 19.0361351,7.004167 L18.890574,7 L17.8207181,7 L17.9112511,5.56281278 L17.9132258,5.5 L17.9132258,5.5 C17.9132258,4.94771525 17.4655105,4.5 16.9132258,4.5 L4.17499118,4.50197467 C3.66316803,4.53418732 3.2655796,4.94601437 3.23916779,5.44599936 L3.23977864,5.56281278 L3.32971808,7 L2.26045573,7 C2.23074113,7 2.20103127,7.0005298 2.17134028,7.0015888 L2.0823381,7.0063533 C1.99660721,7.0124769 1.9121958,7.0228546 1.82929553,7.0372653 L1.74274065,5.65703196 C1.65601429,4.27904654 2.70278659,3.09166304 4.08077201,3.00493668 L4.23780397,3 L16.9132258,3 Z M15.4877181,0 C15.9019317,0 16.2377181,0.33578644 16.2377181,0.75 C16.2377181,1.16421356 15.9019317,1.5 15.4877181,1.5 L6.48771808,1.5 C6.07350452,1.5 5.73771808,1.16421356 5.73771808,0.75 C5.73771808,0.33578644 6.07350452,0 6.48771808,0 L15.4877181,0 Z"></path>
            </g>
        </g>
    </g>
</svg>