<?xml version="1.0" encoding="UTF-8"?>
<svg width="26px" height="26px" viewBox="0 0 26 26" version="1.1" xmlns="http://www.w3.org/2000/svg" xmlns:xlink="http://www.w3.org/1999/xlink">
    <title>ic_B_normal</title>
    <defs>
        <path d="M12.7613921,3.25 C14.8952498,3.25 16.5002985,3.68518083 17.5765863,4.55555556 C18.6528742,5.42593028 19.1910101,6.72221361 19.1910101,8.44444444 C19.1910101,9.35185639 18.9336408,10.1574039 18.4188944,10.8611111 C17.904148,11.5648183 17.1881933,12.3121401 16.2710089,12.7010309 C17.3379377,12.9973287 18.1802373,13.3564774 18.797933,14.1805556 C19.4156286,15.0046338 19.7244718,15.9814758 19.7244718,17.1111111 C19.7244718,18.8703792 19.1535799,20.25 18.0117788,21.25 C16.8699778,22.25 15.2508908,22.75 13.1544692,22.75 L7.93020321,22.75 C7.03190873,22.75 6.30369718,22.0217884 6.30369718,21.123494 L6.30369718,4.87650602 C6.30369718,3.97821155 7.03190873,3.25 7.93020321,3.25 L12.7613921,3.25 L12.7613921,3.25 Z M13.2188224,20.3125 C14.4862534,20.3125 15.4806845,20.0424754 16.2021452,19.5024182 C16.923606,18.9623609 17.284331,18.2167706 17.284331,17.265625 C17.284331,15.2343648 15.9389243,14.21875 13.2480706,14.21875 L8.74383803,14.21875 L8.74383803,20.3125 L13.2188224,20.3125 Z M12.8107394,11.78125 C13.9920834,11.78125 14.9313345,11.5079904 15.6285211,10.961463 C16.3257077,10.4149356 16.6742958,9.66802604 16.6742958,8.72071188 C16.6742958,7.66409225 16.3499152,6.89441105 15.7011444,6.41164518 C15.0523735,5.92887931 14.0598658,5.6875 12.7235915,5.6875 L8.74383803,5.6875 L8.74383803,11.78125 L12.8107394,11.78125 Z" id="path-1"></path>
    </defs>
    <g id="ic_B_normal" stroke="none" stroke-width="1" fill="none" fill-rule="evenodd">
        <mask id="mask-2" fill="white">
            <use xlink:href="#path-1"></use>
        </mask>
        <use id="蒙版" fill="#182431" fill-rule="nonzero" xlink:href="#path-1"></use>
    </g>
</svg>