<?xml version="1.0" encoding="UTF-8"?>
<svg width="20px" height="20px" viewBox="0 0 20 20" version="1.1" xmlns="http://www.w3.org/2000/svg" xmlns:xlink="http://www.w3.org/1999/xlink">
    <title>ic_close</title>
    <defs>
        <path d="M16.0871772,3.43023314 C16.3254108,3.66820888 16.3254108,4.05404379 16.0871772,4.29201953 L4.29666961,16.0697669 C4.05843604,16.3077426 3.67218311,16.3077426 3.43394954,16.0697669 C3.19571597,15.8317911 3.19571597,15.4459562 3.43394954,15.2079805 L8.8979871,9.74956911 L3.43394954,4.29201953 C3.19571597,4.05404379 3.19571597,3.66820888 3.43394954,3.43023314 C3.67218311,3.1922574 4.05843604,3.1922574 4.29666961,3.43023314 L9.76056338,8.88792635 L15.2244572,3.43023314 C15.4626907,3.1922574 15.8489437,3.1922574 16.0871772,3.43023314 Z M16.0871772,15.2079805 C16.3254108,15.4459562 16.3254108,15.8317911 16.0871772,16.0697669 C15.8489437,16.3077426 15.4626907,16.3077426 15.2244572,16.0697669 L10.3358539,11.186167 L11.1984302,10.3245243 L16.0871772,15.2079805 Z" id="path-1"></path>
    </defs>
    <g id="ic_close" stroke="none" stroke-width="1" fill="none" fill-rule="evenodd">
        <mask id="mask-2" fill="white">
            <use xlink:href="#path-1"></use>
        </mask>
        <use id="形状" fill-opacity="0.6" fill="#000000" xlink:href="#path-1"></use>
    </g>
</svg>