<?xml version="1.0" encoding="UTF-8"?>
<svg width="26px" height="26px" viewBox="0 0 26 26" version="1.1" xmlns="http://www.w3.org/2000/svg" xmlns:xlink="http://www.w3.org/1999/xlink">
    <title>ic_I_normal</title>
    <g id="ic_I_normal" stroke="none" stroke-width="1" fill="none" fill-rule="evenodd">
        <path d="M18.9119718,3.25 C19.3607032,3.25 19.7244718,3.61376864 19.7244718,4.0625 C19.7244718,4.51123136 19.3607032,4.875 18.9119718,4.875 L15.2736972,4.875 L12.4026972,21.125 L16.0651408,21.125 C16.5138722,21.125 16.8776408,21.4887686 16.8776408,21.9375 C16.8776408,22.3862314 16.5138722,22.75 16.0651408,22.75 L7.11619718,22.75 C6.66746582,22.75 6.30369718,22.3862314 6.30369718,21.9375 C6.30369718,21.4887686 6.66746582,21.125 7.11619718,21.125 L10.7536972,21.125 L13.6246972,4.875 L9.96302817,4.875 C9.51429681,4.875 9.15052817,4.51123136 9.15052817,4.0625 C9.15052817,3.61376864 9.51429681,3.25 9.96302817,3.25 L18.9119718,3.25 Z" id="形状结合" fill="#182431"></path>
    </g>
</svg>