<?xml version="1.0" encoding="UTF-8"?>
<svg width="26px" height="26px" viewBox="0 0 26 26" version="1.1" xmlns="http://www.w3.org/2000/svg" xmlns:xlink="http://www.w3.org/1999/xlink">
    <title>ic_I_on</title>
    <g id="ic_I_on" stroke="none" stroke-width="1" fill="none" fill-rule="evenodd">
        <path d="M18.9119718,3 C19.4987744,3 19.9744718,3.47569745 19.9744718,4.0625 C19.9744718,4.64930255 19.4987744,5.125 18.9119718,5.125 L15.4826972,5.125 L12.7006972,20.875 L16.0651408,20.875 C16.6128232,20.875 17.0637207,21.2893853 17.1214062,21.8217289 L17.1276408,21.9375 C17.1276408,22.5243025 16.6519434,23 16.0651408,23 L7.11619718,23 C6.52939464,23 6.05369718,22.5243025 6.05369718,21.9375 C6.05369718,21.3506975 6.52939464,20.875 7.11619718,20.875 L10.5426972,20.875 L13.3256972,5.125 L9.96302817,5.125 C9.41534579,5.125 8.9644483,4.71061466 8.90676277,4.17827108 L8.90052817,4.0625 C8.90052817,3.47569745 9.37622562,3 9.96302817,3 Z" id="形状结合" fill="#007DFF"></path>
    </g>
</svg>