<?xml version="1.0" encoding="UTF-8"?>
<svg width="26px" height="26px" viewBox="0 0 26 26" version="1.1" xmlns="http://www.w3.org/2000/svg" xmlns:xlink="http://www.w3.org/1999/xlink">
    <title>ic_left_on</title>
    <g id="ic_left_on" stroke="none" stroke-width="1" fill="none" fill-rule="evenodd">
        <path d="M3,4 L23,4 C23.5522847,4 24,4.44771525 24,5 C24,5.55228475 23.5522847,6 23,6 L3,6 C2.44771525,6 2,5.55228475 2,5 C2,4.44771525 2.44771525,4 3,4 Z M3,15 L23,15 C23.5522847,15 24,15.4477153 24,16 C24,16.5522847 23.5522847,17 23,17 L3,17 C2.44771525,17 2,16.5522847 2,16 C2,15.4477153 2.44771525,15 3,15 Z M3,9.5 L14,9.5 C14.5522847,9.5 15,9.94771525 15,10.5 C15,11.0522847 14.5522847,11.5 14,11.5 L3,11.5 C2.44771525,11.5 2,11.0522847 2,10.5 C2,9.94771525 2.44771525,9.5 3,9.5 Z M3,21 L14,21 C14.5522847,21 15,21.4477153 15,22 C15,22.5522847 14.5522847,23 14,23 L3,23 C2.44771525,23 2,22.5522847 2,22 C2,21.4477153 2.44771525,21 3,21 Z" id="形状结合" fill="#007DFF"></path>
    </g>
</svg>