<?xml version="1.0" encoding="UTF-8"?>
<svg width="26px" height="26px" viewBox="0 0 26 26" version="1.1" xmlns="http://www.w3.org/2000/svg" xmlns:xlink="http://www.w3.org/1999/xlink">
    <title>ic_left_normal</title>
    <g id="ic_left_normal" stroke="none" stroke-width="1" fill="none" fill-rule="evenodd">
        <path d="M13.6584507,21 C14.1076682,21 14.471831,21.3357865 14.471831,21.75 C14.471831,22.1642135 14.1076682,22.5 13.6584507,22.5 L2.81338028,22.5 C2.36416277,22.5 2,22.1642135 2,21.75 C2,21.3357865 2.36416277,21 2.81338028,21 L13.6584507,21 Z M22.8767606,15 C23.3259781,15 23.6901408,15.3357865 23.6901408,15.75 C23.6901408,16.1642135 23.3259781,16.5 22.8767606,16.5 L2.81338028,16.5 C2.36416276,16.5 2,16.1642135 2,15.75 C2,15.3357865 2.36416276,15 2.81338028,15 L22.8767606,15 Z M13.6584507,9 C14.1076682,9 14.471831,9.33578645 14.471831,9.75 C14.471831,10.1642135 14.1076682,10.5 13.6584507,10.5 L2.81338028,10.5 C2.36416277,10.5 2,10.1642135 2,9.75 C2,9.33578645 2.36416277,9 2.81338028,9 L13.6584507,9 Z M22.8767606,4 C23.3259781,4 23.6901408,4.33578644 23.6901408,4.75 C23.6901408,5.16421356 23.3259781,5.5 22.8767606,5.5 L2.81338028,5.5 C2.36416276,5.5 2,5.16421356 2,4.75 C2,4.33578644 2.36416276,4 2.81338028,4 L22.8767606,4 Z" id="形状结合" fill="#182431" fill-rule="nonzero"></path>
    </g>
</svg>