<?xml version="1.0" encoding="UTF-8"?>
<svg width="26px" height="26px" viewBox="0 0 26 26" version="1.1" xmlns="http://www.w3.org/2000/svg" xmlns:xlink="http://www.w3.org/1999/xlink">
    <title>ic_middle_on</title>
    <g id="ic_middle_on" stroke="none" stroke-width="1" fill="none" fill-rule="evenodd">
        <path d="M3,4 L23,4 C23.5522847,4 24,4.44771525 24,5 C24,5.55228475 23.5522847,6 23,6 L3,6 C2.44771525,6 2,5.55228475 2,5 C2,4.44771525 2.44771525,4 3,4 Z M3,15 L23,15 C23.5522847,15 24,15.4477153 24,16 C24,16.5522847 23.5522847,17 23,17 L3,17 C2.44771525,17 2,16.5522847 2,16 C2,15.4477153 2.44771525,15 3,15 Z M8,9.5 L19,9.5 C19.5522847,9.5 20,9.94771525 20,10.5 C20,11.0522847 19.5522847,11.5 19,11.5 L8,11.5 C7.44771525,11.5 7,11.0522847 7,10.5 C7,9.94771525 7.44771525,9.5 8,9.5 Z M8,21 L19,21 C19.5522847,21 20,21.4477153 20,22 C20,22.5522847 19.5522847,23 19,23 L8,23 C7.44771525,23 7,22.5522847 7,22 C7,21.4477153 7.44771525,21 8,21 Z" id="形状结合" fill="#007DFF"></path>
    </g>
</svg>