<?xml version="1.0" encoding="UTF-8"?>
<svg width="26px" height="26px" viewBox="0 0 26 26" version="1.1" xmlns="http://www.w3.org/2000/svg" xmlns:xlink="http://www.w3.org/1999/xlink">
    <title>ic_middle_normal</title>
    <g id="ic_middle_normal" stroke="none" stroke-width="1" fill="none" fill-rule="evenodd">
        <path d="M18.4366197,20.5833333 C18.8858372,20.5833333 19.25,20.9191198 19.25,21.3333333 C19.25,21.7475469 18.8858372,22.0833333 18.4366197,22.0833333 L7.5915493,22.0833333 C7.14233178,22.0833333 6.77816901,21.7475469 6.77816901,21.3333333 C6.77816901,20.9191198 7.14233178,20.5833333 7.5915493,20.5833333 L18.4366197,20.5833333 Z M23.0457746,14.8958333 C23.4949922,14.8958333 23.8591549,15.2316198 23.8591549,15.6458333 C23.8591549,16.0600469 23.4949922,16.3958333 23.0457746,16.3958333 L2.98239437,16.3958333 C2.53317684,16.3958333 2.16901408,16.0600469 2.16901408,15.6458333 C2.16901408,15.2316198 2.53317684,14.8958333 2.98239437,14.8958333 L23.0457746,14.8958333 Z M18.4366197,9.47916667 C18.8858372,9.47916667 19.25,9.81495312 19.25,10.2291667 C19.25,10.6433802 18.8858372,10.9791667 18.4366197,10.9791667 L7.5915493,10.9791667 C7.14233178,10.9791667 6.77816901,10.6433802 6.77816901,10.2291667 C6.77816901,9.81495312 7.14233178,9.47916667 7.5915493,9.47916667 L18.4366197,9.47916667 Z M23.0457746,3.79166667 C23.4949922,3.79166667 23.8591549,4.1274531 23.8591549,4.54166667 C23.8591549,4.95588023 23.4949922,5.29166667 23.0457746,5.29166667 L2.98239437,5.29166667 C2.53317684,5.29166667 2.16901408,4.95588023 2.16901408,4.54166667 C2.16901408,4.1274531 2.53317684,3.79166667 2.98239437,3.79166667 L23.0457746,3.79166667 Z" id="形状结合" fill="#182431" fill-rule="nonzero"></path>
    </g>
</svg>