<?xml version="1.0" encoding="UTF-8"?>
<svg width="24px" height="24px" viewBox="0 0 24 24" version="1.1" xmlns="http://www.w3.org/2000/svg" xmlns:xlink="http://www.w3.org/1999/xlink">
    <title>切片</title>
    <g id="页面-1" stroke="none" stroke-width="1" fill="none" fill-rule="evenodd">
        <g id="编组">
            <rect id="矩形" x="0" y="0" width="24" height="24"></rect>
            <g opacity="0.6" transform="translate(1.000000, 3.000000)" fill="#000000" fill-rule="nonzero" id="path-1">
                <path d="M14.5,0 C18.6421356,0 22,3.35786438 22,7.5 C22,11.6007143 18.7089571,14.9327643 14.6240262,14.9989952 L14.5,15 L12.8105,15 L9.0303301,18.7803301 C8.7491526,19.0615076 8.30026186,19.0727547 8.00566731,18.8140714 L7.96966991,18.7803301 C7.68849242,18.4991526 7.67724532,18.0502619 7.93592862,17.7556673 L7.96966991,17.7196699 L11.9696699,13.7196699 C12.0986012,13.5907387 12.2696414,13.5135976 12.4504659,13.5016361 L12.5,13.5 L14.5,13.5 C17.8137085,13.5 20.5,10.8137085 20.5,7.5 C20.5,4.21942859 17.8671657,1.55378857 14.599221,1.50080383 L7.5,1.5 C4.1862915,1.5 1.5,4.1862915 1.5,7.5 C1.5,10.7805714 4.1328343,13.4462114 7.40077903,13.4991962 L7.5,13.5 L8.25,13.5 C8.66421356,13.5 9,13.8357864 9,14.25 C9,14.6494202 8.68777001,14.9759152 8.2940682,14.9987268 L8.25,15 L7.5,15 C3.35786438,15 0,11.6421356 0,7.5 C0,3.39928573 3.29104288,0.06723571 7.37597379,0.00100479 L7.5,0 L14.5,0 Z"></path>
            </g>
        </g>
    </g>
</svg>