<?xml version="1.0" encoding="UTF-8"?>
<svg width="26px" height="26px" viewBox="0 0 26 26" version="1.1" xmlns="http://www.w3.org/2000/svg" xmlns:xlink="http://www.w3.org/1999/xlink">
    <title>ic_right_normal</title>
    <g id="ic_right_normal" stroke="none" stroke-width="1" fill="none" fill-rule="evenodd">
        <path d="M23.0457746,20.5833333 C23.4949922,20.5833333 23.8591549,20.9191198 23.8591549,21.3333333 C23.8591549,21.7475469 23.4949922,22.0833333 23.0457746,22.0833333 L12.2007042,22.0833333 C11.7514867,22.0833333 11.3873239,21.7475469 11.3873239,21.3333333 C11.3873239,20.9191198 11.7514867,20.5833333 12.2007042,20.5833333 L23.0457746,20.5833333 Z M23.0457746,14.8958333 C23.4949922,14.8958333 23.8591549,15.2316198 23.8591549,15.6458333 C23.8591549,16.0600469 23.4949922,16.3958333 23.0457746,16.3958333 L2.98239437,16.3958333 C2.53317684,16.3958333 2.16901408,16.0600469 2.16901408,15.6458333 C2.16901408,15.2316198 2.53317684,14.8958333 2.98239437,14.8958333 L23.0457746,14.8958333 Z M23.0457746,9.47916667 C23.4949922,9.47916667 23.8591549,9.81495312 23.8591549,10.2291667 C23.8591549,10.6433802 23.4949922,10.9791667 23.0457746,10.9791667 L12.2007042,10.9791667 C11.7514867,10.9791667 11.3873239,10.6433802 11.3873239,10.2291667 C11.3873239,9.81495312 11.7514867,9.47916667 12.2007042,9.47916667 L23.0457746,9.47916667 Z M23.0457746,3.79166667 C23.4949922,3.79166667 23.8591549,4.1274531 23.8591549,4.54166667 C23.8591549,4.95588023 23.4949922,5.29166667 23.0457746,5.29166667 L2.98239437,5.29166667 C2.53317684,5.29166667 2.16901408,4.95588023 2.16901408,4.54166667 C2.16901408,4.1274531 2.53317684,3.79166667 2.98239437,3.79166667 L23.0457746,3.79166667 Z" id="形状结合" fill="#182431" fill-rule="nonzero"></path>
    </g>
</svg>