<?xml version="1.0" encoding="UTF-8"?>
<svg width="26px" height="26px" viewBox="0 0 26 26" version="1.1" xmlns="http://www.w3.org/2000/svg" xmlns:xlink="http://www.w3.org/1999/xlink">
    <title>ic_right_on</title>
    <g id="ic_right_on" stroke="none" stroke-width="1" fill="none" fill-rule="evenodd">
        <path d="M3,4 L23,4 C23.5522847,4 24,4.44771525 24,5 C24,5.55228475 23.5522847,6 23,6 L3,6 C2.44771525,6 2,5.55228475 2,5 C2,4.44771525 2.44771525,4 3,4 Z M3,15 L23,15 C23.5522847,15 24,15.4477153 24,16 C24,16.5522847 23.5522847,17 23,17 L3,17 C2.44771525,17 2,16.5522847 2,16 C2,15.4477153 2.44771525,15 3,15 Z M12,9.5 L23,9.5 C23.5522847,9.5 24,9.94771525 24,10.5 C24,11.0522847 23.5522847,11.5 23,11.5 L12,11.5 C11.4477153,11.5 11,11.0522847 11,10.5 C11,9.94771525 11.4477153,9.5 12,9.5 Z M12,20.5 L23,20.5 C23.5522847,20.5 24,20.9477153 24,21.5 C24,22.0522847 23.5522847,22.5 23,22.5 L12,22.5 C11.4477153,22.5 11,22.0522847 11,21.5 C11,20.9477153 11.4477153,20.5 12,20.5 Z" id="形状结合" fill="#007DFF"></path>
    </g>
</svg>