<?xml version="1.0" encoding="UTF-8"?>
<svg width="26px" height="26px" viewBox="0 0 26 26" version="1.1" xmlns="http://www.w3.org/2000/svg" xmlns:xlink="http://www.w3.org/1999/xlink">
    <title>ic_U_normal</title>
    <g id="ic_U_normal" stroke="none" stroke-width="1" fill="none" fill-rule="evenodd">
        <path d="M5.22359155,23.234375 L20.8045775,23.234375 C21.218791,23.234375 21.5545775,22.8985886 21.5545775,22.484375 C21.5545775,22.0701614 21.218791,21.734375 20.8045775,21.734375 L5.22359155,21.734375 C4.80937799,21.734375 4.47359155,22.0701614 4.47359155,22.484375 C4.47359155,22.8985886 4.80937799,23.234375 5.22359155,23.234375 Z M18.5044014,3.4218553 C18.9531328,3.4218553 19.3169014,3.78562394 19.3169014,4.2343553 L19.3163873,4.26542797 L19.3177817,14.625 C19.3103218,16.1747763 18.8273017,17.4424141 17.8687069,18.4279514 C16.9101121,19.4134887 15.6102472,19.9664346 13.9690732,20.0868056 L12.991705,20.109375 C11.2087932,20.109375 9.38101694,19.6241368 8.32171373,18.6536458 C7.26241052,17.6831549 6.72530709,16.3478094 6.71038732,14.6475694 L6.71126761,4.26405233 C6.71126761,3.81532097 7.07503625,3.45155233 7.52376761,3.45155233 C7.97249896,3.45155233 8.33626761,3.81532097 8.33626761,4.26405233 L8.33714789,14.4353471 C8.34795185,15.6957946 8.73688882,16.685733 9.50397045,17.405192 C10.2710521,18.1246509 11.7068046,18.484375 12.9978786,18.484375 L13.8178184,18.4676435 C15.0062548,18.3784083 15.9475363,17.9684901 16.6416911,17.2378768 C17.335846,16.5072634 17.6856191,15.5675191 17.6910211,14.4186156 L17.6903873,4.265625 L17.6913873,4.26542797 L17.6919014,4.2343553 C17.6919014,3.82014174 18.0018581,3.47832245 18.4024831,3.42818583 Z" id="形状结合" fill="#182431" fill-rule="nonzero"></path>
    </g>
</svg>