<?xml version="1.0" encoding="UTF-8"?>
<svg width="26px" height="26px" viewBox="0 0 26 26" version="1.1" xmlns="http://www.w3.org/2000/svg" xmlns:xlink="http://www.w3.org/1999/xlink">
    <title>ic_U_on</title>
    <g id="ic_U_on" stroke="none" stroke-width="1" fill="none" fill-rule="evenodd">
        <rect id="形状结合" fill="#007DFF" fill-rule="nonzero" x="4.47359155" y="21.734375" width="17.0809859" height="2" rx="1"></rect>
        <path d="M18.5044014,2.9218553 C19.2292751,2.9218553 19.8169014,3.50948157 19.816833,4.24262647 L19.8177759,14.6274067 C19.8097127,16.3025104 19.2791127,17.6950171 18.2271256,18.7765716 C17.1786488,19.8545172 15.7634033,20.4565445 13.9806162,20.5866723 L12.991705,20.609375 C10.9926943,20.609375 9.09871948,20.0436202 7.98395298,19.022316 C6.81713863,17.9533276 6.22649046,16.4848594 6.21038733,14.6475271 L6.21126761,4.26405233 C6.21126761,3.5391786 6.79889387,2.95155233 7.52376761,2.95155233 C8.24864134,2.95155233 8.83626761,3.5391786 8.8362676,4.26400906 L8.83712952,14.4310615 C8.84681588,15.5611236 9.18414875,16.4197171 9.84602196,17.0404993 C10.4600548,17.6164111 11.72069,17.984375 12.9876779,17.9844791 L13.7803807,17.969047 C14.8502955,17.8887111 15.6747825,17.5296558 16.2792093,16.8934832 C16.8822404,16.2587796 17.1862032,15.442115 17.1910211,14.4186468 L17.1909724,4.24144324 C17.1919014,3.57066779 17.6869131,3.01383639 18.371486,2.92914758 Z" id="形状结合" fill="#007DFF" fill-rule="nonzero"></path>
    </g>
</svg>