<?xml version="1.0" standalone="no"?>
<svg xmlns="http://www.w3.org/2000/svg" width="24" height="24"><rect width="24" height="24" opacity="0"></rect><g><path d="M18 6.46L18 5.5Q18 4.68 17.59 4Q17.18 3.31 16.5 2.9Q15.82 2.5 15 2.5L8.98 2.5Q8.16 2.5 7.48 2.9Q6.79 3.31 6.38 4Q5.98 4.68 5.98 5.5L5.98 6.46L4.51 6.46Q3.7 6.46 3.01 6.86Q2.33 7.27 1.92 7.96Q1.51 8.64 1.51 9.46L1.51 18.48Q1.51 19.3 1.92 19.98Q2.33 20.66 3.01 21.07Q3.7 21.48 4.51 21.48L19.51 21.48Q20.33 21.48 21.01 21.08Q21.7 20.69 22.1 20Q22.51 19.32 22.51 18.5L22.51 9.46Q22.51 8.64 22.1 7.96Q21.7 7.27 21 6.86Q20.3 6.46 19.51 6.46ZM7.49 5.5Q7.49 4.87 7.92 4.44Q8.35 4.01 8.98 4.01L15 4.01Q15.62 4.01 16.07 4.44Q16.51 4.87 16.51 5.5L16.51 6.46L7.49 6.46L7.49 5.5ZM19.51 7.97Q20.14 7.97 20.57 8.4Q21 8.83 21 9.46L21 12.46L14.95 12.46Q14.76 12.14 14.46 11.96Q14.16 11.78 13.82 11.78L10.15 11.78Q9.82 11.78 9.52 11.96Q9.22 12.14 9.02 12.46L3 12.46L3 9.46Q3 8.83 3.44 8.4Q3.89 7.97 4.51 7.97L19.51 7.97ZM4.51 19.99Q3.89 19.99 3.44 19.55Q3 19.1 3 18.48L3 13.8L9.02 13.8Q9.22 14.11 9.52 14.29Q9.82 14.47 10.15 14.47L13.82 14.47Q14.18 14.47 14.5 14.28Q14.81 14.09 14.98 13.8L21 13.8L21 18.5Q21 19.1 20.57 19.55Q20.14 19.99 19.51 19.99L4.51 19.99Z" fill="rgba(0,0,0,0.9019607843137255)"></path></g></svg>