<?xml version="1.0" standalone="no"?>
<svg xmlns="http://www.w3.org/2000/svg" width="24" height="24"><rect width="24" height="24" opacity="0"></rect><g><path d="M19.01 11.26Q19.75 11.26 20.38 10.88Q21 10.51 21.37 9.88Q21.74 9.24 21.74 8.5L21.74 4.99Q21.74 4.25 21.37 3.62Q21 3 20.38 2.63Q19.75 2.26 19.01 2.26L15.5 2.26Q14.76 2.26 14.12 2.63Q13.49 3 13.12 3.62Q12.74 4.25 12.74 4.99L12.74 8.5Q12.74 9.24 13.12 9.88Q13.49 10.51 14.12 10.88Q14.76 11.26 15.5 11.26L19.01 11.26ZM19.01 21.74Q19.75 21.74 20.38 21.37Q21 21 21.37 20.38Q21.74 19.75 21.74 19.01L21.74 15.5Q21.74 14.76 21.37 14.12Q21 13.49 20.38 13.12Q19.75 12.74 19.01 12.74L15.5 12.74Q14.76 12.74 14.12 13.12Q13.49 13.49 13.12 14.12Q12.74 14.76 12.74 15.5L12.74 19.01Q12.74 19.75 13.12 20.38Q13.49 21 14.12 21.37Q14.76 21.74 15.5 21.74L19.01 21.74ZM8.5 21.74Q9.24 21.74 9.88 21.37Q10.51 21 10.88 20.38Q11.26 19.75 11.26 19.01L11.26 15.5Q11.26 14.76 10.88 14.12Q10.51 13.49 9.88 13.12Q9.24 12.74 8.5 12.74L4.99 12.74Q4.25 12.74 3.62 13.12Q3 13.49 2.63 14.12Q2.26 14.76 2.26 15.5L2.26 19.01Q2.26 19.75 2.63 20.38Q3 21 3.62 21.37Q4.25 21.74 4.99 21.74L8.5 21.74ZM8.5 11.26Q9.24 11.26 9.86 10.88Q10.49 10.51 10.86 9.88Q11.23 9.24 11.23 8.5L11.23 4.99Q11.23 4.25 10.86 3.62Q10.49 3 9.86 2.63Q9.24 2.26 8.5 2.26L4.99 2.26Q4.25 2.26 3.61 2.63Q2.98 3 2.6 3.62Q2.23 4.25 2.23 4.99L2.23 8.5Q2.23 9.24 2.6 9.88Q2.98 10.51 3.61 10.88Q4.25 11.26 4.99 11.26L8.5 11.26Z" fill="rgba(255,255,255,1)"></path></g></svg>