<?xml version="1.0" standalone="no"?>
<svg xmlns="http://www.w3.org/2000/svg" width="24" height="24"><rect width="24" height="24" opacity="0"></rect><g><path d="M3.24 17.76Q3.19 18.05 3.3 18.3Q3.41 18.55 3.67 18.65Q3.98 18.77 4.22 18.73Q4.46 18.7 4.66 18.43Q6.29 16.2 8.52 14.59Q10.75 12.98 13.34 12.98L13.78 12.98L13.78 15.26Q13.78 15.6 13.99 15.82Q14.21 16.03 14.52 16.06Q14.83 16.08 15.07 15.86L20.74 10.97Q21 10.7 21 10.36Q21 10.01 20.74 9.77L15.07 4.87Q14.83 4.66 14.52 4.68Q14.21 4.7 13.99 4.92Q13.78 5.14 13.78 5.47L13.78 7.87Q11.26 8.16 9.13 9.5Q7.01 10.85 5.48 12.98Q3.96 15.12 3.24 17.76Z" fill="rgba(0,0,0,1)"></path></g></svg>