<?xml version="1.0" encoding="UTF-8"?>
<svg viewBox="0 0 96 96" version="1.1" xmlns="http://www.w3.org/2000/svg" xmlns:xlink="http://www.w3.org/1999/xlink">
    <title>ic_music_ranking_select</title>
    <defs>
        <path d="M76,48 L84,48 C88.418278,48 92,51.581722 92,56 L92,76 C92,80.418278 88.418278,84 84,84 L76,84 C71.581722,84 68,80.418278 68,76 L68,56 C68,51.581722 71.581722,48 76,48 Z M12,32 L20,32 C24.418278,32 28,35.581722 28,40 L28,76 C28,80.418278 24.418278,84 20,84 L12,84 C7.581722,84 4,80.418278 4,76 L4,40 C4,35.581722 7.581722,32 12,32 Z M44,8 L52,8 C56.418278,8 60,11.581722 60,16 L60,76 C60,80.418278 56.418278,84 52,84 L44,84 C39.581722,84 36,80.418278 36,76 L36,16 C36,11.581722 39.581722,8 44,8 Z" id="path-1"></path>
    </defs>
    <g id="ic_music_ranking_select" stroke="none" stroke-width="1" fill="none" fill-rule="evenodd">
        <mask id="mask-2" fill="white">
            <use xlink:href="#path-1"></use>
        </mask>
        <use id="形状" fill="#FF1949" fill-rule="nonzero" xlink:href="#path-1"></use>
    </g>
</svg>