<?xml version="1.0" encoding="UTF-8"?>
<svg viewBox="0 0 96 96" version="1.1" xmlns="http://www.w3.org/2000/svg" xmlns:xlink="http://www.w3.org/1999/xlink">
    <title>ic_music_ranking_select_nor</title>
    <defs>
        <path d="M44,18 C42.8954305,18 42,18.8954305 42,20 L42,72 C42,73.1045695 42.8954305,74 44,74 L52,74 C53.1045695,74 54,73.1045695 54,72 L54,20 C54,18.8954305 53.1045695,18 52,18 L44,18 Z M44,12 L52,12 C56.418278,12 60,15.581722 60,20 L60,72 C60,76.418278 56.418278,80 52,80 L44,80 C39.581722,80 36,76.418278 36,72 L36,20 C36,15.581722 39.581722,12 44,12 Z M12,38 C10.8954305,38 10,38.8954305 10,40 L10,72 C10,73.1045695 10.8954305,74 12,74 L20,74 C21.1045695,74 22,73.1045695 22,72 L22,40 C22,38.8954305 21.1045695,38 20,38 L12,38 Z M12,32 L20,32 C24.418278,32 28,35.581722 28,40 L28,72 C28,76.418278 24.418278,80 20,80 L12,80 C7.581722,80 4,76.418278 4,72 L4,40 C4,35.581722 7.581722,32 12,32 Z M76,54 C74.8954305,54 74,54.8954305 74,56 L74,72 C74,73.1045695 74.8954305,74 76,74 L84,74 C85.1045695,74 86,73.1045695 86,72 L86,56 C86,54.8954305 85.1045695,54 84,54 L76,54 Z M76,48 L84,48 C88.418278,48 92,51.581722 92,56 L92,72 C92,76.418278 88.418278,80 84,80 L76,80 C71.581722,80 68,76.418278 68,72 L68,56 C68,51.581722 71.581722,48 76,48 Z" id="path-1"></path>
    </defs>
    <g id="ic_music_ranking_select_nor" stroke="none" stroke-width="1" fill="none" fill-rule="evenodd">
        <mask id="mask-2" fill="white">
            <use xlink:href="#path-1"></use>
        </mask>
        <use id="Combined-Shape" fill="#666666" fill-rule="nonzero" xlink:href="#path-1"></use>
    </g>
</svg>