<?xml version="1.0" standalone="no"?>
<svg xmlns="http://www.w3.org/2000/svg" width="24" height="24"><rect width="24" height="24" opacity="0"></rect><g><path d="M19.99 21Q20.74 21 21.37 20.63Q22.01 20.26 22.38 19.64Q22.75 19.03 22.75 18.29L22.75 8.4Q22.75 7.66 22.38 7.03Q22.01 6.41 21.37 6.04Q20.74 5.66 19.99 5.66L17.38 5.66Q17.3 5.66 17.23 5.63Q17.16 5.59 17.14 5.52L16.61 4.2Q16.39 3.65 15.9 3.32Q15.41 3 14.81 3L9.26 3Q8.66 3 8.17 3.32Q7.68 3.65 7.44 4.2L6.94 5.52Q6.91 5.59 6.85 5.63Q6.79 5.66 6.72 5.66L6.7 5.66L4.01 5.66Q3.26 5.66 2.63 6.04Q1.99 6.41 1.62 7.03Q1.25 7.66 1.25 8.4L1.25 18.29Q1.25 19.03 1.62 19.66Q1.99 20.28 2.62 20.64Q3.24 21 4.01 21L19.99 21ZM6.7 7.18Q7.22 7.18 7.67 6.88Q8.11 6.58 8.3 6.1L8.83 4.75Q8.9 4.63 9.01 4.56Q9.12 4.49 9.26 4.49L14.81 4.49Q14.95 4.49 15.06 4.56Q15.17 4.63 15.22 4.75L15.74 6.1Q15.94 6.58 16.39 6.88Q16.85 7.18 17.38 7.18L19.99 7.18Q20.52 7.18 20.88 7.54Q21.24 7.9 21.24 8.4L21.24 18.29Q21.24 18.79 20.88 19.14Q20.52 19.49 19.99 19.49L4.01 19.49Q3.48 19.49 3.12 19.14Q2.76 18.79 2.76 18.29L2.76 8.4Q2.76 7.9 3.12 7.54Q3.48 7.18 4.01 7.18L6.7 7.18ZM12 17.42Q13.2 17.42 14.22 16.82Q15.24 16.22 15.84 15.2Q16.44 14.18 16.44 12.96Q16.44 11.76 15.84 10.74Q15.24 9.72 14.22 9.12Q13.2 8.52 12 8.52Q10.8 8.52 9.78 9.12Q8.76 9.72 8.16 10.74Q7.56 11.76 7.56 12.96Q7.56 14.18 8.16 15.2Q8.76 16.22 9.78 16.82Q10.8 17.42 12 17.42ZM12 10.03Q12.79 10.03 13.48 10.43Q14.16 10.82 14.56 11.5Q14.95 12.17 14.95 12.96Q14.95 13.75 14.56 14.44Q14.16 15.12 13.48 15.52Q12.79 15.91 12 15.91Q11.21 15.91 10.52 15.52Q9.84 15.12 9.44 14.44Q9.05 13.75 9.05 12.96Q9.05 12.17 9.44 11.5Q9.84 10.82 10.52 10.43Q11.21 10.03 12 10.03Z" fill="rgba(0,0,0,0.9019607843137255)"></path></g></svg>