<svg width="32" height="32" viewBox="0 0 32 32" fill="none" xmlns="http://www.w3.org/2000/svg">
<g id="Frame" clip-path="url(#clip0_82_726819)">
<g id="_ic_contacts_refuse_filled">
<g id="Frame_2">
<g id="_Public/ic_public_phone_filled">
<path id="_&#232;&#183;&#175;&#229;&#190;&#132;" d="M2.80416 9.19577C2.38552 7.37422 2.93955 5.46627 4.26938 4.14724C5.0078 3.318 5.70677 2.84025 6.36629 2.714C7.35556 2.52462 8.36851 2.91501 8.99771 3.69704L11.1384 6.34325C11.2455 6.47438 11.3294 6.57644 11.3805 6.63743L11.4273 6.69227C12.2386 7.6063 12.2174 8.97965 11.3907 9.86765L11.3318 9.9288L9.88648 11.2923C9.3121 11.865 9.20952 12.7558 9.63895 13.4432C10.4718 14.7829 12.0323 16.5893 13.7364 18.2639C15.4111 19.9681 17.2175 21.5287 18.5572 22.3615C19.2446 22.7909 20.1354 22.6883 20.7081 22.1139L22.0716 20.6686L22.1328 20.6097C22.9968 19.8053 24.3202 19.7635 25.233 20.5092L25.4631 20.7029C25.9867 21.1344 27.6256 22.4574 28.3034 23.0027C29.0854 23.6319 29.4758 24.6448 29.2864 25.6341C29.1602 26.2936 28.6824 26.9926 27.8532 27.731C26.5341 29.0609 24.6262 29.6149 22.8046 29.1963C18.9256 28.2951 14.3385 25.2549 10.5227 21.4778C6.74552 17.6619 3.70534 13.0749 2.80416 9.19577Z" fill="#00CB87"/>
</g>
</g>
</g>
</g>
<defs>
<clipPath id="clip0_82_726819">
<rect width="32" height="32" fill="white"/>
</clipPath>
</defs>
</svg>
