<?xml version="1.0" standalone="no"?>
<svg xmlns="http://www.w3.org/2000/svg" width="24" height="24"><rect width="24" height="24" opacity="0"></rect><g><path d="M6 1.99Q4.92 1.99 4.01 2.53Q3.1 3.07 2.56 4Q2.02 4.92 2.02 6L2.02 8.06L14.52 8.06L14.52 1.99L6 1.99ZM22.01 6Q22.01 4.92 21.47 4Q20.93 3.07 20 2.53Q19.08 1.99 18 1.99L16.01 1.99L16.01 14.45L22.01 14.45L22.01 6ZM2.02 18Q2.02 19.08 2.56 20Q3.1 20.93 4.01 21.47Q4.92 22.01 6 22.01L8.02 22.01L8.02 9.58L2.02 9.58L2.02 18ZM9.53 14.45L14.52 14.45L14.52 9.58L9.53 9.58ZM9.53 22.01L18 22.01Q19.08 22.01 20 21.47Q20.93 20.93 21.47 20Q22.01 19.08 22.01 18L22.01 15.94L9.53 15.94Z" fill="#0091FF"></path></g></svg>