<?xml version="1.0" standalone="no"?>
<svg xmlns="http://www.w3.org/2000/svg" width="24" height="24"><rect width="24" height="24" opacity="0"></rect><g><path d="M5.95 1.99Q4.87 1.99 3.97 2.52Q3.07 3.05 2.54 3.96Q2.02 4.87 2.02 5.95L2.02 18.05Q2.02 19.1 2.54 20.02Q3.07 20.93 3.97 21.46Q4.87 21.98 5.95 21.98L18.05 21.98Q19.13 21.98 20.04 21.46Q20.95 20.93 21.48 20.02Q22.01 19.1 22.01 18.05L22.01 5.95Q22.01 4.87 21.48 3.96Q20.95 3.05 20.04 2.52Q19.13 1.99 18.05 1.99L5.95 1.99ZM20.52 13.99L15.5 13.99L15.5 3.5L18.05 3.5Q18.72 3.5 19.28 3.84Q19.85 4.18 20.18 4.73Q20.52 5.28 20.52 5.95ZM14.02 10.01L14.02 13.99L10.01 13.99L10.01 10.01ZM14.02 3.5L14.02 8.5L3.5 8.5L3.5 5.95Q3.5 5.28 3.84 4.73Q4.18 4.18 4.73 3.84Q5.28 3.5 5.95 3.5ZM3.5 10.01L8.52 10.01L8.52 20.5L5.95 20.5Q5.28 20.5 4.73 20.16Q4.18 19.82 3.84 19.27Q3.5 18.72 3.5 18.05ZM10.01 20.5L10.01 15.48L20.52 15.48L20.52 18.05Q20.52 18.72 20.18 19.27Q19.85 19.82 19.28 20.16Q18.72 20.5 18.05 20.5Z" fill="#6D7278"></path></g></svg>