<?xml version="1.0" standalone="no"?>
<svg xmlns="http://www.w3.org/2000/svg" width="24" height="24"><rect width="24" height="24" opacity="0"></rect><g><path d="M3.98 13.56Q3.77 13.78 3.77 14.1Q3.77 14.42 3.98 14.64Q4.2 14.86 4.51 14.84Q4.82 14.83 5.06 14.64L7.51 12.19L7.58 12.12Q7.8 11.78 7.8 11.47Q7.8 11.09 7.56 10.8L7.51 10.73L5.06 8.28Q4.82 8.06 4.54 8.06Q4.25 8.06 3.98 8.28Q3.77 8.5 3.77 8.81Q3.77 9.12 3.98 9.34L6.1 11.47L3.98 13.56Z" fill="rgba(0,0,0,0.9019607843137255)"></path><path d="M12.41 11.98Q12.41 11.52 12.73 11.2Q13.06 10.87 13.51 10.87Q13.99 10.87 14.3 11.18Q14.62 11.5 14.62 11.98Q14.62 12.43 14.29 12.76Q13.97 13.08 13.51 13.08Q13.06 13.08 12.73 12.76Q12.41 12.43 12.41 11.98ZM7.54 1.08Q6.91 1.08 6.4 1.38Q5.88 1.68 5.58 2.2Q5.28 2.71 5.28 3.31L5.28 6.89Q6.02 7.27 6.79 8.18L6.79 3.31Q6.79 3 7.01 2.78Q7.22 2.57 7.54 2.57L15.31 2.57L11.3 3.29Q10.97 3.34 10.73 3.61Q10.49 3.89 10.49 4.25L10.49 20.76L7.51 20.76Q7.2 20.76 7 20.54Q6.79 20.33 6.79 20.02L6.79 14.64Q6.1 15.62 5.28 16.01L5.28 20.02Q5.28 20.64 5.58 21.16Q5.88 21.67 6.4 21.97Q6.91 22.27 7.54 22.27L10.56 22.27Q10.68 22.61 10.99 22.8Q11.3 22.99 11.66 22.92L15.31 22.27L18.02 22.27Q18.65 22.27 19.16 21.97Q19.68 21.67 19.98 21.16Q20.28 20.64 20.28 20.02L20.28 3.31Q20.28 2.71 19.98 2.2Q19.68 1.68 19.16 1.38Q18.65 1.08 18.02 1.08L7.54 1.08Z" fill="rgba(0,0,0,0.9019607843137255)"></path></g></svg>