<?xml version="1.0" encoding="UTF-8"?>
<svg width="40px" height="40px" viewBox="0 0 40 40" version="1.1" xmlns="http://www.w3.org/2000/svg" xmlns:xlink="http://www.w3.org/1999/xlink">
    <title>image_selected2</title>
    <g id="image_selected2" stroke="none" stroke-width="1" fill="none" fill-rule="evenodd">
        <g id="提示箭头备份-6">
            <circle id="椭圆形" stroke="#FFFFFF" stroke-width="2" fill="#0A59F7" cx="20" cy="20" r="19"></circle>
            <path d="M21.3351966,10.431419 L21.4291265,10.5149208 L30.1511968,19.2952509 C30.5087887,19.6552313 30.5362957,20.2193354 30.233718,20.6107195 L30.1511968,20.7047491 L21.4291265,29.4850792 C21.0399043,29.8769013 20.4067428,29.8790089 20.0149208,29.4897867 C19.6532389,29.1305046 19.6236214,28.563369 19.9273388,28.1700647 L20.0102133,28.0755809 L27.038,20.9996699 L10.25,21 C9.69771525,21 9.25,20.5522847 9.25,20 C9.25,19.4871642 9.63604019,19.0644928 10.1333789,19.0067277 L10.25,19 L27.038,18.9996699 L20.0102133,11.9244191 C19.6509313,11.5627372 19.62509,10.995417 19.931419,10.6041432 L20.0149208,10.5102133 C20.3766027,10.1509313 20.9439229,10.12509 21.3351966,10.431419 Z" id="形状结合" fill="#FFFFFF" fill-rule="nonzero"></path>
        </g>
    </g>
</svg>