<?xml version="1.0" encoding="UTF-8"?>
<svg width="24px" height="24px" viewBox="0 0 24 24" version="1.1" xmlns="http://www.w3.org/2000/svg" xmlns:xlink="http://www.w3.org/1999/xlink">
    <title>image_Photo</title>
    <defs>
        <path d="M4.91631345,20 C3.4822629,20 2.78434081,19.865225 2.05892659,19.4772693 C1.3985956,19.1241204 0.87587962,18.6014044 0.522730745,17.9410734 C0.463590685,17.8304911 0.412411114,17.7256435 0.366203317,17.6186495 L0.366203317,17.6186495 L0.169863601,17.1640257 L0.203068859,17.1293767 C0.0694188356,16.627903 0,15.9625402 0,14.8722296 L0,5.1277704 C0,3.38266989 0.177835213,2.72618864 0.512234974,2.08791999 L0.534265408,2.04630859 C0.866278917,1.42549731 1.34610464,0.931919309 1.9541436,0.585173576 L2.04630859,0.534265408 C2.69816044,0.185651222 3.34473292,0 5.1277704,0 L14.8722296,0 C16.6173301,0 17.2738114,0.177835213 17.91208,0.512234974 L17.9536914,0.534265408 C18.5745027,0.866278917 19.0680807,1.34610464 19.4148264,1.9541436 L19.4657346,2.04630859 C19.8143488,2.69816044 20,3.34473292 20,5.1277704 L20,11.642 L18.5,10.141 L18.5,5.1277704 C18.5,3.72858421 18.4070984,3.24750032 18.1430148,2.75370688 C17.9342003,2.36325774 17.6367423,2.06579969 17.2462931,1.8569852 C16.7771894,1.60610577 16.319556,1.50971811 15.0753381,1.50070655 L5.02453833,1.50017541 L4.82305804,1.501658 C3.6550816,1.5151767 3.20981608,1.61305534 2.75370688,1.8569852 C2.36325774,2.06579969 2.06579969,2.36325774 1.8569852,2.75370688 C1.59290159,3.24750032 1.5,3.72858421 1.5,5.1277704 L1.50017541,14.9754617 L1.501658,15.176942 C1.50433313,15.4080653 1.51031162,15.6108889 1.52007149,15.7910966 L4.23117693,13.0802089 C4.84253138,12.4786014 5.23245121,12.2222995 5.747863,12.06608 C6.24342763,11.9158762 6.75657237,11.9158762 7.26248567,12.0692985 L7.26248567,12.0692985 L7.346174,12.0960881 C7.81611824,12.2541699 8.19851172,12.5183877 8.77910973,13.0903817 L8.77910973,13.0903817 L8.8931669,13.204383 C9.1864195,13.4972075 9.66158022,13.4971545 9.95451022,13.2045215 L9.95451022,13.2045215 L12.7829536,10.3767818 C13.3943081,9.7751743 13.7842279,9.51887236 14.2996397,9.3626529 C14.7952043,9.21244903 15.3083491,9.21244903 15.8039137,9.3626529 C16.3226475,9.51987924 16.712587,9.77781972 17.3310088,10.3870769 L17.3310088,10.3870769 L20,13.0558052 L20,15.0836866 C20,16.5177371 19.865225,17.2156592 19.4772693,17.9410734 C19.1241204,18.6014044 18.6014044,19.1241204 17.9410734,19.4772693 C17.2571114,19.8430561 16.5975894,19.9837704 15.3224552,19.9986577 L15.3224552,19.9986577 L15.0836866,20 Z M15.3688157,10.7981632 C15.156944,10.7339456 14.9466094,10.7339456 14.7347377,10.7981632 C14.4667877,10.8793778 14.2638532,11.016621 13.7691544,11.5113198 L13.7691544,11.5113198 L11.0148897,14.2654623 C10.1361318,15.1433294 8.71223556,15.1434884 7.83302443,14.2655605 L7.83302443,14.2655605 L7.72256623,14.1551288 C7.29437318,13.7333016 7.09118115,13.5929045 6.87915442,13.5214839 L6.87915442,13.5214839 L6.81703899,13.5015903 C6.6051673,13.4373727 6.3948327,13.4373727 6.18296101,13.5015903 C5.91501101,13.582805 5.7120765,13.7200481 5.21738947,14.2147352 L5.21738947,14.2147352 L1.98094669,17.4519096 C2.00402284,17.4859706 2.02791563,17.5191899 2.05262886,17.5515712 C2.05172553,17.5536276 2.05223835,17.5542925 2.05275151,17.5549571 C2.08544135,17.5945648 2.11970016,17.6360813 2.15541417,17.6761293 C2.16577482,17.6898676 2.17731522,17.702453 2.18899894,17.7148959 L2.15541417,17.6761293 C2.19508185,17.7206108 2.23654474,17.7632809 2.27981503,17.8041516 L2.18899894,17.7148959 C2.22622874,17.7545447 2.26491388,17.7927462 2.30504477,17.8294907 L2.27981503,17.8041516 C2.41895549,17.9355762 2.57678461,18.0483957 2.75370688,18.1430148 C3.22281064,18.3938942 3.68044405,18.4902819 4.92466189,18.4992935 L5.1277704,18.5 L14.8722296,18.5 C16.2714158,18.5 16.7524997,18.4070984 17.2462931,18.1430148 C17.6367423,17.9342003 17.9342003,17.6367423 18.1430148,17.2462931 C18.3938942,16.7771894 18.4902819,16.319556 18.4992935,15.0753381 L18.5,14.8722296 L18.5,14.384 L18.49975,13.677 L16.2743429,11.4517016 C15.8764392,11.0597135 15.6794642,10.9133194 15.4632826,10.830363 L15.4632826,10.830363 L15.4008037,10.80823 Z M6.25,5.25 C7.21649831,5.25 8,6.03350169 8,7 C8,7.96649831 7.21649831,8.75 6.25,8.75 C5.28350169,8.75 4.5,7.96649831 4.5,7 C4.5,6.03350169 5.28350169,5.25 6.25,5.25 Z" id="path-1"></path>
    </defs>
    <g id="image_Photo" stroke="none" stroke-width="1" fill="none" fill-rule="evenodd">
        <g id="Public/ic_public_picture" transform="translate(2.000000, 2.000000)">
            <mask id="mask-2" fill="white">
                <use xlink:href="#path-1"></use>
            </mask>
            <use id="蒙版" fill="#FFFFFF" fill-rule="nonzero" xlink:href="#path-1"></use>
        </g>
    </g>
</svg>